<svg width="247" height="309" viewBox="0 0 247 309" fill="none" xmlns="http://www.w3.org/2000/svg">
<path d="M96.7812 257.228L101.877 257.56" stroke="black"/>
<path d="M82.5605 266.494L87.6564 266.825" stroke="black"/>
<path d="M89.5703 258.896L94.6662 259.227" stroke="black"/>
<path d="M96.5078 251.375L101.229 251.663" stroke="black"/>
<path d="M103.004 244.462L106.466 244.465" stroke="black"/>
<path d="M108.301 238.623L111.763 238.627" stroke="black"/>
<path d="M113.875 232.761L116.148 232.72" stroke="black"/>
<path d="M109.854 233.726L112.68 233.671" stroke="black"/>
<path d="M103.012 240.258L106.225 240.321" stroke="black"/>
<path d="M96.7363 246.746L100.419 246.999" stroke="black"/>
<path d="M89.4492 254.431L91.9794 254.336" stroke="black"/>
<path d="M83.248 260.766L86.2994 260.539" stroke="black"/>
<path d="M102.17 251.06L107.266 251.392" stroke="black"/>
<path d="M108.445 243.829L113.541 244.16" stroke="black"/>
<path d="M13.772 238.349C13.2449 243.245 43.4889 276.065 51.9722 281.216C58.2964 281.284 110.497 228.005 110.208 225.471C109.919 222.938 80.0997 187.356 75.5266 186.2C70.9535 185.044 14.299 233.453 13.772 238.349Z" stroke="black"/>
<path d="M18.7093 219.342C18.1947 218.163 17.8106 215.498 20.3905 214.27C22.9703 213.041 25.0469 215.108 25.7626 216.295C25.6958 215.285 26.0259 212.95 27.8814 211.693C29.7368 210.436 31.6323 212.496 32.348 213.683C32.5897 212.484 33.6415 210.258 35.9152 210.952C38.1888 211.647 38.71 213.229 38.6864 213.933" stroke="black"/>
<path d="M109.996 225.015C124.684 224.145 154.369 222.831 153.458 225.225C152.319 228.217 107.633 281.182 100.977 282.534C95.6526 283.615 66.5334 282.466 53.0038 280.95" stroke="black"/>
<path d="M100.584 281.413L98.4434 281.083" stroke="black" stroke-width="0.5"/>
<path d="M101.351 280.739L100.262 280.006" stroke="black" stroke-width="0.5"/>
<path d="M150.784 225.69L147.857 225.777" stroke="black" stroke-width="0.5"/>
<path d="M150.473 227.071L148.949 227.232" stroke="black" stroke-width="0.5"/>
<path d="M72.9942 271.046C74.435 269.401 111.326 231.808 112.244 230.988C114.858 230.542 131.948 229.382 131.263 230.521C130.579 231.66 97.1519 270.633 94.2873 272.342C91.4227 274.05 71.5534 272.69 72.9942 271.046Z" stroke="black"/>
<path d="M120.195 230.402C108.229 243.964 84.0101 271.417 82.8575 272.733" stroke="black"/>
<path d="M115.867 230.414C104.023 243.243 80.0509 269.212 78.9099 270.457" stroke="black"/>
<path d="M94.4742 263.352L91.291 262.998" stroke="black"/>
<path d="M115.791 235.691L118.158 236.112" stroke="black"/>
<path d="M90.6357 269.97C102.634 257.054 126.727 231.033 127.115 230.278" stroke="black"/>
<path d="M94.4121 266.196L97.4531 266.466" stroke="black"/>
<path d="M99.8125 260.325L104.367 261.421" stroke="black"/>
<path d="M111.099 258.469C111.684 257.144 121.399 245.832 123.655 244.082C123.806 243.965 123.977 243.892 124.166 243.87C126.196 243.629 129.927 245.692 129.351 246.629C128.747 247.61 119.178 258.892 117.708 259.628C116.237 260.363 110.491 259.846 111.099 258.469Z" fill="black"/>
<path d="M24.6593 239.784C27.0517 233.059 68.0902 199.165 73.0317 194.824C73.3213 194.57 73.651 194.387 74.0271 194.472C79.7614 195.766 103.721 224.202 103.541 226.789C103.354 229.475 54.7406 272.674 52.3606 273.439C50.0454 274.183 26.4318 244.998 24.6691 240.418C24.5858 240.202 24.5816 240.003 24.6593 239.784Z" fill="black"/>
<path d="M78.9267 208.216C79.4339 216.193 80.461 232.433 80.512 233.572" stroke="white"/>
<path d="M69.4442 215.203C69.8447 219.735 70.6573 228.962 70.7034 229.609" stroke="white"/>
<path d="M53.2612 282.772C53.4 283.34 54.4597 284.54 57.5878 284.795C61.4979 285.113 101.64 287.047 104.424 285.496C107.208 283.945 154.924 232.238 155.069 229.828C155.184 227.9 154.202 225.905 153.696 225.148" stroke="black"/>
<path d="M14.1169 237.582C13.6182 238.618 12.3675 241.821 13.3603 243.602C14.6013 245.829 43.6678 281.522 50.4978 282.347" stroke="black"/>
<path d="M15.8691 238.135L17.7838 242.049" stroke="black" stroke-width="0.5"/>
<path d="M17.0859 237.219L18.3673 239.367" stroke="black" stroke-width="0.5"/>
<path d="M18.4023 236.007L19.4946 237.363" stroke="black" stroke-width="0.5"/>
<path d="M119.15 239.403L122.699 240.232" stroke="black"/>
<path d="M124.23 233.766L125.767 234.257" stroke="black"/>
<ellipse cx="222.192" cy="41.982" rx="3.74486" ry="5.61729" transform="rotate(99.236 222.192 41.982)" stroke="#111111"/>
<rect x="157.666" y="247.721" width="6" height="6" rx="1" transform="rotate(-19.9278 157.666 247.721)" stroke="black"/>
<path d="M169.113 42.3535C168.84 40.6049 167.334 39.3875 165.747 39.6344C164.16 39.8813 163.095 41.499 163.367 43.2476C163.639 44.9963 165.146 46.2137 166.732 45.9668" stroke="#111111"/>
<path d="M23.5904 269.053C22.4138 270.375 22.4324 272.312 23.6319 273.38C24.8314 274.447 26.7575 274.241 27.9341 272.919C29.1107 271.597 29.0921 269.66 27.8926 268.592" stroke="#111111"/>
<path d="M185.842 11.3455C184.664 8.43544 182.926 2.20914 185.394 0.584639C187.863 -1.03986 186.721 7.08169 185.842 11.3455Z" fill="#111111"/>
<path d="M182.472 11.8939C179.592 10.6444 173.987 7.42318 174.609 4.53408C175.231 1.64497 180.11 8.23681 182.472 11.8939Z" fill="#111111"/>
<path d="M170.007 53.2411C160.948 54.3439 139.395 63.2533 125.65 90.0687" stroke="black"/>
<rect x="58.3027" y="147.986" width="6" height="6" rx="1" transform="rotate(-57.7285 58.3027 147.986)" stroke="black"/>
<rect x="113.064" y="77.1238" width="6" height="6" rx="1" transform="rotate(-57.7285 113.064 77.1238)" stroke="black"/>
<path d="M129.604 94.2068L142.773 91.2585" stroke="black"/>
<path d="M290.969 30.8831C280.617 24.8555 250.794 16.4956 214.314 31.2762" stroke="#111111"/>
<path d="M120.823 97.6936C123.594 102.142 138.454 122.807 145.16 133.947C147.06 137.104 146.327 140.996 143.666 143.545C134.081 152.726 122.71 162.993 114.114 168.414L106.999 157.155C106.077 155.696 104.117 155.314 102.715 156.32L91.4618 164.393C86.4932 157.477 65.7936 127.794 61.5991 119.678L61.431 119.353C57.624 111.99 56.3768 109.577 59.1581 105.182C60.8333 102.535 84.16 86.3162 96.0814 78.1261C99.9742 75.4517 105.252 76.2765 108.119 80.0299C112.286 85.4859 117.931 93.0529 120.823 97.6936Z" stroke="#111111"/>
<path d="M90.8766 164.751L113.938 168.651C111.969 165.27 107.914 157.978 106.782 156.774C105.65 155.571 103.717 155.886 102.892 156.194L90.8766 164.751Z" fill="#111111"/>
<path d="M126.279 125.301L106.256 140.153" stroke="black"/>
<path d="M75.8047 110.965L73.8314 117.29C73.6661 117.82 73.101 118.114 72.5724 117.945L69.0391 116.816" stroke="black"/>
<path d="M83.3652 120.391L81.392 126.716C81.2267 127.246 80.6616 127.539 80.1329 127.37L76.5997 126.241" stroke="black"/>
<path d="M92.1406 130.54L90.1674 136.865C90.0021 137.395 89.437 137.688 88.9083 137.519L85.3751 136.39" stroke="black"/>
<path d="M101.162 141.658L99.1889 147.983C99.0236 148.512 98.4584 148.806 97.9298 148.637L94.3965 147.508" stroke="black"/>
<path d="M114.509 161.076L115.766 163.294" stroke="black" stroke-width="0.5"/>
<path d="M100.498 80.6543L102.838 82.5967" stroke="black" stroke-width="0.5"/>
<path d="M98.3313 81.2059L100.018 82.3918" stroke="black" stroke-width="0.5"/>
<path d="M116.021 159.768L117.278 161.986" stroke="black" stroke-width="0.5"/>
<path d="M117.535 158.46L118.516 159.595" stroke="black" stroke-width="0.5"/>
<path d="M118.855 113.84L98.6888 129.669" stroke="black"/>
<path d="M111.43 102.377L90.9918 118.251" stroke="black"/>
<path d="M104.151 91.6076L83.7125 107.481" stroke="black"/>
<path d="M188.996 57.0672C189.1 54.2311 189.001 49.7928 181.203 47.0818C171.793 43.8103 163.901 23.8377 182.165 15.463C200.429 7.0883 205.378 24.0474 205.356 35.3841C205.341 42.7385 199.774 43.7323 201.182 48.2403C202.308 51.8468 203.285 53.9043 204.347 55.7619" stroke="black"/>
<path d="M190.012 16.6436C191.637 16.4082 195.438 16.7277 197.642 19.8887" stroke="black" stroke-width="0.5"/>
<path d="M198.391 21.3744C198.736 21.9386 199.461 23.383 199.598 24.6463" stroke="black" stroke-width="0.5"/>
<path d="M187.684 59.3982C189.745 58.0256 202.096 54.1313 204.191 53.7545C208.5 52.6849 208.167 57.4115 206.295 58.3826C204.423 59.3538 192.271 63.6977 189.528 63.9942C186.785 64.2907 185.623 60.7708 187.684 59.3982Z" stroke="black"/>
<path d="M194.366 56.7887C192.29 51.2895 187.35 39.81 184.196 37.8856C180.254 35.4802 180.944 40.7811 184.869 40.9905C188.793 41.1998 193.912 38.3399 194.077 35.1838C194.241 32.0278 190.876 32.6581 191.357 35.6249C191.742 37.9983 196.456 49.6835 198.765 55.2294" stroke="black"/>
<path d="M191.289 63.6307C189.874 64.0294 187.17 66.17 188.511 68.141C190.065 70.4262 196.239 67.818 201.71 66.0852C207.18 64.3523 210.165 62.9379 209.681 60.479C209.295 58.5119 207.156 58.2948 206.135 58.4321" stroke="black"/>
<path d="M190.967 68.8212L189.828 67.2721" stroke="black" stroke-width="0.5"/>
<path d="M192.883 68.5103L191.566 67.434" stroke="black" stroke-width="0.5"/>
<path d="M202.2 73.2793C196.507 75.7249 193.692 70.8813 192.955 68.9428L207.188 64.1396C207.802 66.1828 208.824 71.3594 202.2 73.2793Z" fill="black"/>
<path d="M135.697 160.837C133.076 165.816 133.259 176.483 154.958 179.313C182.082 182.851 221 192.285 222.179 232.774C223.123 265.166 172.78 263.305 147.49 258.326" stroke="black"/>
<path d="M142.451 262.56C144.722 265.428 150.018 271.703 153.029 273.854" stroke="black"/>
<path d="M21.7225 262.984C18.2637 262.24 9.3517 262.172 1.37388 267.854" stroke="black"/>
</svg>
