<svg width="658" height="658" viewBox="0 0 658 658" fill="none" xmlns="http://www.w3.org/2000/svg">
<path d="M402.386 28.4201L151.719 74.9667C67.927 90.5262 12.6303 171.157 28.2105 255.061L74.8192 506.062C90.3995 589.966 170.957 645.37 254.749 629.81L505.415 583.264C589.208 567.704 644.504 487.073 628.924 403.169L582.315 152.169C566.735 68.2647 486.178 12.8606 402.386 28.4201Z" fill="#0E0E0E"/>
<path d="M526.94 341.366C522.074 315.158 496.911 297.853 470.738 302.713C444.565 307.573 427.293 332.758 432.159 358.966L440.293 402.77C445.16 428.978 470.323 446.284 496.496 441.424C522.669 436.563 539.941 411.378 535.074 385.17L526.94 341.366Z" fill="#111111"/>
<path d="M381.124 368.445C376.257 342.237 351.095 324.931 324.922 329.791C298.749 334.651 281.476 359.837 286.343 386.045L294.477 429.848C299.344 456.056 324.506 473.362 350.679 468.502C376.852 463.642 394.124 438.456 389.258 412.248L381.124 368.445Z" fill="#111111"/>
</svg>
