<svg width="204" height="208" viewBox="0 0 204 208" fill="none" xmlns="http://www.w3.org/2000/svg">
<path d="M58.4458 110.246C57.6647 108.925 56.0599 108.429 54.8613 109.138C53.6626 109.846 53.3242 111.492 54.1053 112.813C54.8863 114.134 56.4912 114.63 57.6898 113.921" stroke="black"/>
<path d="M192.418 164.647C191.397 165.793 191.412 167.473 192.452 168.399C193.491 169.325 195.162 169.148 196.183 168.002C197.204 166.856 197.188 165.176 196.149 164.25" stroke="black"/>
<ellipse rx="4.65833" ry="6.9875" transform="matrix(0.963464 0.267839 0.267839 -0.963464 149.551 57.8176)" stroke="#111111"/>
<ellipse rx="4.65833" ry="6.9875" transform="matrix(-0.0941044 0.995562 0.995562 0.0941044 123.272 169.915)" stroke="#111111"/>
<path d="M58.7784 60.3052C55.8526 56.2831 48.9378 48.7285 44.6851 50.6866C40.4325 52.6447 52.3087 57.9149 58.7784 60.3052Z" fill="#111111"/>
<path d="M48.4928 64.3476C43.6869 63.0669 33.5576 61.5555 31.4883 65.7551C29.4189 69.9548 41.9624 66.5666 48.4928 64.3476Z" fill="#111111"/>
<path d="M113.074 99.2649L114.648 90.7094" stroke="black"/>
<path d="M106.92 100.942L101.402 92.8533" stroke="black"/>
<path d="M114.514 123.149L110.664 135.891" stroke="black"/>
<path d="M122.148 120.116L128.919 125.493" stroke="black"/>
<path d="M171.314 76.684C168.656 74.5635 162.715 69.9959 160.215 68.6904" stroke="#111111" stroke-width="0.5"/>
<path d="M168.578 59.7423C162.766 61.5222 134.608 85.7887 121.879 98.6894C119.435 101.244 123.636 100.103 122.634 101.76C121.632 103.417 123.907 102.965 125.801 101.847C127.695 100.729 127.02 104.15 126.349 106.268C125.678 108.386 127.77 107.654 129.919 106.69C132.068 105.726 130.061 111.645 131.905 110.323C133.748 109 174.983 74.4927 177.55 70.8226C180.116 67.1524 175.842 57.5175 168.578 59.7423Z" stroke="black"/>
<path d="M168.911 68.5477C166.717 66.398 163.34 64.5825 161.926 63.9435C163.111 62.9042 166.104 60.6242 168.596 59.8177C171.71 58.8097 173.913 59.9483 176.075 61.8975C178.237 63.8468 178.676 67.9023 178.218 69.6167C177.851 70.9882 175 73.346 173.62 74.3534C172.965 73.3139 171.105 70.6973 168.911 68.5477Z" fill="#111111"/>
<path d="M134.463 101.303L164.377 75.8317" stroke="#111111" stroke-width="0.5"/>
<path d="M143.685 78.586C133.627 67.6668 112.636 45.5314 109.14 44.3433C104.77 42.8582 45.874 74.1929 46.6718 83.9253C47.3101 91.7112 60.7225 108.007 67.349 115.181" stroke="black"/>
<path d="M80.1299 57.9004C77.9757 55.442 74.6813 49.5708 78.7365 45.7525C82.7918 41.9342 86.7201 41.9693 88.1774 42.4642C83.787 39.5962 76.3605 32.5977 81.7774 27.5469C87.1943 22.4961 96.7601 24.227 100.866 25.7238C99.1005 23.5432 96.4847 18.4762 100.145 15.6522" stroke="black"/>
<path d="M155.039 136.322C154.502 139.337 154.844 145.403 160.515 145.542C166.187 145.681 171.075 145.074 172.81 144.753C168.397 148.937 161.438 158.126 168.909 161.409C176.38 164.692 185.719 156.838 189.454 152.501C189.773 154.664 191.469 158.858 195.695 158.329" stroke="black"/>
<path d="M78.1675 129.17C84.5505 137.739 97.865 155.542 100.059 158.204C102.801 161.532 103.012 166.284 107.088 165.28C111.164 164.275 163.353 131.07 165.397 128.965C167.44 126.86 171.945 110.055 170.82 108.09C169.92 106.518 160.125 95.8865 155.339 90.7671" stroke="black"/>
<rect width="7.46356" height="7.46356" rx="1" transform="matrix(-0.782663 0.622446 0.622446 0.782663 65.6641 142.735)" stroke="black"/>
<rect width="7.46356" height="7.46356" rx="1" transform="matrix(-0.782663 0.622446 0.622446 0.782663 182.617 122.537)" stroke="black"/>
<path d="M157.192 111.289C156.806 109.206 166.241 107.937 171.006 107.563C171.599 110.62 168.965 120.718 168.018 122.072C167.26 123.156 165.853 126.716 165.244 128.361C162.72 123.538 157.577 113.372 157.192 111.289Z" fill="#111111"/>
<path d="M36.0391 124.088C37.708 123.214 80.483 112.232 101.662 106.851C103.458 107.027 100.88 110.237 99.5252 110.999C98.1699 111.762 100.904 111.5 102.702 111.888C104.5 112.276 101.819 115.381 100.569 116.142C99.3193 116.903 103.759 117.452 105.869 117.623C107.979 117.794 107.182 120.232 106.148 121.305C105.115 122.378 43.6755 138.062 40.3017 137.914C36.9279 137.767 27.6255 136.255 27.1689 134.367C26.7123 132.479 33.9529 125.18 36.0391 124.088Z" stroke="black"/>
<path d="M41.3857 122.408C39.7468 122.929 36.3443 124.081 35.8457 124.511C35.2225 125.05 35.184 128.527 38.1326 128.472C41.0813 128.417 42.552 128.389 40.682 129.793C38.812 131.198 38.4321 133.417 40.0156 133.598" stroke="#111111" stroke-width="0.5"/>
<path d="M44.6343 132.564L96.8549 119.578" stroke="#111111" stroke-width="0.5"/>
<path d="M34.6551 136.808L32.3154 127.318C30.5935 129.035 27.1356 132.829 27.078 134.263C27.0205 135.697 31.9833 136.612 34.6551 136.808Z" fill="#111111"/>
</svg>
