<svg width="98" height="98" viewBox="0 0 98 98" fill="none" xmlns="http://www.w3.org/2000/svg">
<path d="M70.4539 0H26.5646C11.8934 0 0 11.9092 0 26.6V70.5478C0 85.2386 11.8934 97.1478 26.5646 97.1478H70.4539C85.1251 97.1478 97.0185 85.2386 97.0185 70.5478V26.6C97.0185 11.9092 85.1251 0 70.4539 0Z" fill="#111111"/>
<path d="M70.4539 0H26.5646C11.8934 0 0 11.9092 0 26.6V70.5478C0 85.2386 11.8934 97.1478 26.5646 97.1478H70.4539C85.1251 97.1478 97.0185 85.2386 97.0185 70.5478V26.6C97.0185 11.9092 85.1251 0 70.4539 0Z" fill="#111111"/>
<path d="M70.4539 0H26.5646C11.8934 0 0 11.9092 0 26.6V70.5478C0 85.2386 11.8934 97.1478 26.5646 97.1478H70.4539C85.1251 97.1478 97.0185 85.2386 97.0185 70.5478V26.6C97.0185 11.9092 85.1251 0 70.4539 0Z" fill="#111111"/>
<path d="M81.6997 56.8824C81.6997 52.2937 77.9848 48.5737 73.4021 48.5737C68.8195 48.5737 65.1045 52.2937 65.1045 56.8824V64.552C65.1045 69.1407 68.8195 72.8607 73.4021 72.8607C77.9848 72.8607 81.6997 69.1407 81.6997 64.552V56.8824Z" fill="#ECECEC"/>
<path d="M56.1685 56.8824C56.1685 52.2937 52.4535 48.5737 47.8709 48.5737C43.2882 48.5737 39.5732 52.2937 39.5732 56.8824V64.552C39.5732 69.1407 43.2882 72.8607 47.8709 72.8607C52.4535 72.8607 56.1685 69.1407 56.1685 64.552V56.8824Z" fill="#ECECEC"/>
</svg>
