<svg width="310" height="132" viewBox="0 0 310 132" fill="none" xmlns="http://www.w3.org/2000/svg">
<path d="M186.851 48.2085H199.37L182.129 103.304H170.489L159.068 66.1697L147.537 103.304H135.897L118.656 48.2085H131.175L141.827 86.2246L153.357 48.2085H164.668L176.089 86.2246L186.851 48.2085ZM219.305 37.7404C217.841 39.2096 216.084 39.9442 214.034 39.9442C211.984 39.9442 210.19 39.2096 208.653 37.7404C207.189 36.1977 206.457 34.3979 206.457 32.341C206.457 30.2841 207.189 28.521 208.653 27.0518C210.117 25.5091 211.911 24.7378 214.034 24.7378C216.157 24.7378 217.951 25.5091 219.415 27.0518C220.879 28.521 221.611 30.2841 221.611 32.341C221.611 34.3979 220.843 36.1977 219.305 37.7404ZM208.104 103.304V48.2085H219.964V103.304H208.104ZM282.273 103.304H268.107L245.594 77.85V103.304H233.734V26.1703H245.594V72.5608L266.899 48.2085H281.394L257.235 75.2054L282.273 103.304ZM301.453 37.7404C299.989 39.2096 298.232 39.9442 296.182 39.9442C294.132 39.9442 292.338 39.2096 290.801 37.7404C289.336 36.1977 288.604 34.3979 288.604 32.341C288.604 30.2841 289.336 28.521 290.801 27.0518C292.265 25.5091 294.059 24.7378 296.182 24.7378C298.305 24.7378 300.098 25.5091 301.563 27.0518C303.027 28.521 303.759 30.2841 303.759 32.341C303.759 34.3979 302.99 36.1977 301.453 37.7404ZM290.252 103.304V48.2085H302.112V103.304H290.252Z" fill="#ECECEC"/>
<path d="M69.7786 21.8086H26.31C11.7794 21.8086 0 33.6283 0 48.2086V91.826C0 106.406 11.7794 118.226 26.31 118.226H69.7786C84.3092 118.226 96.0886 106.406 96.0886 91.826V48.2086C96.0886 33.6283 84.3092 21.8086 69.7786 21.8086Z" fill="#ECECEC"/>
<path d="M80.9166 78.2638C80.9166 73.7095 77.2373 70.0176 72.6986 70.0176C68.1598 70.0176 64.4805 73.7095 64.4805 78.2638V85.8757C64.4805 90.43 68.1598 94.1219 72.6986 94.1219C77.2373 94.1219 80.9166 90.43 80.9166 85.8757V78.2638Z" fill="#111111"/>
<path d="M55.63 78.2638C55.63 73.7095 51.9507 70.0176 47.4119 70.0176C42.8732 70.0176 39.1938 73.7095 39.1938 78.2638V85.8757C39.1938 90.43 42.8732 94.1219 47.4119 94.1219C51.9507 94.1219 55.63 90.43 55.63 85.8757V78.2638Z" fill="#111111"/>
</svg>
