<svg width="580" height="71" viewBox="0 0 580 71" fill="none" xmlns="http://www.w3.org/2000/svg">
<path d="M0.688 62.376L5.968 50.664C8.848 52.776 12.24 54.472 16.144 55.752C20.112 57.032 24.112 57.672 28.144 57.672C32.56 57.672 35.824 57.032 37.936 55.752C40.048 54.408 41.104 52.648 41.104 50.472C40.976 49.256 40.592 48.232 39.952 47.4C39.312 46.504 38.384 45.736 37.168 45.096C35.952 44.456 34.448 43.912 32.656 43.464C30.928 42.952 28.88 42.408 26.512 41.832C23.952 41.192 21.616 40.584 19.504 40.008C17.456 39.432 15.6 38.824 13.936 38.184C12.272 37.608 10.704 36.84 9.232 35.88C7.824 34.856 6.576 33.672 5.488 32.328C4.464 30.984 3.632 29.416 2.992 27.624C2.352 25.832 2.032 23.816 2.032 21.576C2.032 18.632 2.64 15.912 3.856 13.416C5.072 10.856 6.864 8.648 9.232 6.792C11.6 4.872 14.544 3.368 18.064 2.27999C21.584 1.192 25.68 0.647999 30.352 0.647999C34.64 0.647999 38.832 1.16 42.928 2.184C47.024 3.208 50.608 4.68 53.68 6.6L48.88 18.408C42.672 14.888 36.464 13.128 30.256 13.128C25.84 13.128 22.608 13.832 20.56 15.24C18.512 16.648 17.488 18.504 17.488 20.808C17.488 23.112 18.672 24.84 21.04 25.992C23.408 27.08 27.088 28.168 32.08 29.256C34.64 29.896 36.944 30.504 38.992 31.08C41.104 31.656 42.992 32.264 44.656 32.904C46.256 33.48 47.792 34.248 49.264 35.208C50.736 36.168 51.984 37.32 53.008 38.664C54.096 40.008 54.96 41.576 55.6 43.368C56.24 45.096 56.56 47.08 56.56 49.32C56.56 52.2 55.952 54.92 54.736 57.48C53.52 59.976 51.696 62.184 49.264 64.104C46.896 65.96 43.92 67.432 40.336 68.52C36.816 69.608 32.72 70.152 28.048 70.152C22.672 70.152 17.52 69.448 12.592 68.04C7.728 66.568 3.76 64.68 0.688 62.376ZM67.1868 1.8H82.7388V69H67.1868V1.8ZM136.895 43.272L161.471 1.8H174.239L174.431 69H159.839L159.743 29.352H159.359L139.967 61.896H132.959L113.663 30.12H113.279V69H98.6868V1.8H111.551L136.511 43.272H136.895ZM248.646 26.184C248.646 29.96 247.942 33.352 246.534 36.36C245.19 39.304 243.238 41.832 240.678 43.944C238.182 46.056 235.142 47.688 231.558 48.84C227.974 49.928 223.942 50.472 219.462 50.472H205.926V69H190.374V1.8H219.462C223.942 1.8 227.974 2.376 231.558 3.528C235.142 4.68 238.182 6.312 240.678 8.424C243.238 10.536 245.19 13.096 246.534 16.104C247.942 19.112 248.646 22.472 248.646 26.184ZM232.902 26.184C232.902 22.344 231.686 19.432 229.254 17.448C226.822 15.464 223.27 14.472 218.598 14.472H205.926V37.8H218.598C223.27 37.8 226.822 36.808 229.254 34.824C231.686 32.776 232.902 29.896 232.902 26.184ZM257.327 35.4C257.199 30.536 258.031 25.992 259.823 21.768C261.679 17.544 264.207 13.896 267.407 10.824C270.671 7.688 274.479 5.256 278.831 3.528C283.247 1.8 287.951 0.967997 292.943 1.032C298.191 1.032 302.991 1.928 307.343 3.72C311.695 5.448 315.407 8.04 318.479 11.496L312.239 17.544C307.119 12.232 300.815 9.576 293.327 9.576C289.615 9.512 286.127 10.152 282.863 11.496C279.663 12.776 276.847 14.6 274.415 16.968C272.047 19.272 270.191 22.024 268.847 25.224C267.503 28.36 266.863 31.752 266.927 35.4C266.863 39.048 267.503 42.472 268.847 45.672C270.191 48.808 272.047 51.56 274.415 53.928C276.847 56.232 279.663 58.056 282.863 59.4C286.127 60.68 289.615 61.288 293.327 61.224C300.815 61.224 307.119 58.536 312.239 53.16L318.479 59.208C315.407 62.664 311.663 65.288 307.247 67.08C302.895 68.872 298.095 69.768 292.847 69.768C287.855 69.832 283.183 69 278.831 67.272C274.479 65.544 270.671 63.144 267.407 60.072C264.207 56.936 261.711 53.256 259.919 49.032C258.127 44.808 257.263 40.264 257.327 35.4ZM377.102 69L362.606 48.36C361.71 48.424 360.91 48.488 360.206 48.552C359.502 48.552 358.894 48.552 358.382 48.552H341.774V69H332.174V1.8H358.382C362.734 1.8 366.638 2.344 370.094 3.432C373.55 4.52 376.494 6.088 378.926 8.136C381.358 10.12 383.214 12.552 384.494 15.432C385.774 18.312 386.414 21.576 386.414 25.224C386.414 30.408 385.134 34.824 382.574 38.472C380.078 42.12 376.43 44.776 371.63 46.44L387.566 69H377.102ZM376.814 25.224C376.814 20.36 375.214 16.648 372.014 14.088C368.878 11.464 364.238 10.152 358.094 10.152H341.774V40.392H358.094C364.238 40.392 368.878 39.08 372.014 36.456C375.214 33.832 376.814 30.088 376.814 25.224ZM444.74 52.2H409.028L401.636 69H391.748L422.18 1.8H431.684L462.212 69H452.132L444.74 52.2ZM441.38 44.52L427.076 12.072H426.692L412.388 44.52H441.38ZM481.836 10.152V33.576H515.532V41.832H481.836V69H472.236V1.8H519.66V10.152H481.836ZM546.987 10.152H523.947V1.8H579.531V10.152H556.491V69H546.987V10.152Z" fill="white"/>
</svg>
