<svg width="223" height="361" viewBox="0 0 223 361" fill="none" xmlns="http://www.w3.org/2000/svg">
<path d="M87.7241 120.779C89.381 115.807 95.8148 91.1795 100.115 78.9093C101.334 75.4314 104.798 73.5132 108.459 73.9363C121.644 75.4599 136.804 77.6663 146.463 80.8274L142.332 93.4889C141.796 95.1299 142.753 96.8831 144.422 97.3212L157.818 100.836C155.662 109.075 146.01 143.952 142.437 152.359L142.293 152.696C139.052 160.325 137.99 162.825 132.831 163.487C129.086 163.968 105.135 157.527 86.6661 151.939C82.9215 150.806 80.6402 147.361 81.4881 143.541C82.9795 136.824 85.698 126.859 87.7241 120.779Z" stroke="white"/>
<path d="M145.673 102.83L106.027 93.249C104.987 92.9974 103.933 93.6101 103.636 94.6389L97.9702 114.287C97.6483 115.404 98.3422 116.558 99.479 116.798L139.491 125.243C140.518 125.46 141.538 124.845 141.827 123.836L147.125 105.325C147.438 104.231 146.778 103.098 145.673 102.83Z" fill="white"/>
<path d="M98.1175 111.337C101.226 109.722 110.221 106.45 112.098 107.483C113.72 108.376 117.198 111.604 119.418 113.568C119.99 114.074 120.8 114.191 121.495 113.878C124.892 112.348 129.434 110.282 131.719 111.781C134.272 113.455 137.496 116.12 138.79 117.243" stroke="#111111"/>
<path d="M106.172 85.0384L122.478 88.2545" stroke="white"/>
<path d="M140.56 85.204L141.467 82.821" stroke="white" stroke-width="0.5"/>
<path d="M87.5691 147.3L87.5718 144.259" stroke="white" stroke-width="0.5"/>
<path d="M89.3765 148.617L89.2139 146.562" stroke="white" stroke-width="0.5"/>
<path d="M138.588 84.8736L139.494 82.4906" stroke="white" stroke-width="0.5"/>
<path d="M136.615 84.543L136.863 83.0636" stroke="white" stroke-width="0.5"/>
<path d="M95.9974 125.898L137.002 134.016" stroke="white"/>
<path d="M94.7762 132.862L133.412 141.786" stroke="white"/>
<path d="M92.6068 139.518L131.243 148.441" stroke="white"/>
<path d="M146.462 80.8271L157.323 97.5187" stroke="white"/>
<path d="M60.458 199.615C55.0014 193.466 45.1278 177.291 49.2869 161.779C53.4459 146.268 69.5969 134.714 77.1525 130.876" stroke="white"/>
<path d="M71.2562 190.194L79.0742 179.844" stroke="white"/>
<path d="M101.112 63.3059C101.707 62.1651 103.54 60.1929 106.116 61.4299C108.692 62.6669 108.386 65.5808 107.912 66.8832C108.656 66.1969 110.681 64.9881 112.824 65.6433C114.967 66.2985 114.554 69.067 114.079 70.3694C115.165 69.8044 117.557 69.2258 118.444 71.4314C119.331 73.6371 118.427 75.0362 117.864 75.46" stroke="white"/>
<path d="M162.92 291.723C162.486 290.512 162.281 287.827 164.937 286.774C167.593 285.721 169.527 287.922 170.162 289.154C170.162 288.142 170.648 285.834 172.583 284.704C174.518 283.574 176.272 285.756 176.907 286.988" stroke="white"/>
<path d="M148.409 268.317C150.43 266.884 154.897 264.42 156.593 266.021C158.288 267.623 151.843 268.219 148.409 268.317Z" fill="white"/>
<path d="M151.594 270.884C154.041 270.497 159.138 270.269 159.947 272.456C160.757 274.643 154.716 272.32 151.594 270.884Z" fill="white"/>
<rect x="127.351" y="242.693" width="6" height="6" rx="1" transform="rotate(-26.2494 127.351 242.693)" stroke="white"/>
<rect x="73.9961" y="73.4292" width="6" height="6" rx="1" transform="rotate(-26.2494 73.9961 73.4292)" stroke="white"/>
<path d="M165.198 102.208C181.48 101.986 205.783 82.344 216.646 64.844C227.508 47.344 227.146 28.844 227.146 28.844" stroke="white"/>
<ellipse cx="30.4974" cy="187.037" rx="3.74486" ry="5.61729" transform="rotate(-42.1568 30.4974 187.037)" stroke="white"/>
<ellipse cx="174.263" cy="124.883" rx="3.74486" ry="5.61729" transform="rotate(122.97 174.263 124.883)" stroke="white"/>
<path d="M118.819 207.228C117.856 208.713 118.167 210.625 119.514 211.499C120.861 212.373 122.734 211.878 123.697 210.393C124.66 208.908 124.349 206.996 123.002 206.122" stroke="white"/>
<path d="M117.855 105.734C117.673 106.823 116.642 107.558 115.552 107.376C114.463 107.193 113.728 106.162 113.91 105.073C114.093 103.983 115.124 103.248 116.213 103.431" stroke="#111111"/>
<rect x="95.2417" y="207.679" width="55" height="7" transform="rotate(170.992 95.2417 207.679)" fill="white"/>
<path d="M43.4522 213.925L82.9955 207.877" stroke="#111111" stroke-width="0.5"/>
<path d="M89.9834 205.5L90.2286 207.062" stroke="#111111" stroke-width="0.5"/>
<path d="M88.0117 205.169L88.2569 206.731" stroke="#111111" stroke-width="0.5"/>
<path d="M90.8457 202.301L90.2977 198.844L70.5444 201.976" stroke="white"/>
<path d="M94.3809 202.247L100.307 201.307C101.398 201.134 102.422 201.878 102.595 202.969L102.651 203.317C102.832 204.464 102.003 205.523 100.847 205.623L95.9949 206.041" stroke="white"/>
<path d="M40.3965 209.792L33.506 212.723C32.6393 213.092 32.7164 214.345 33.6217 214.605L38.8668 216.11" stroke="white"/>
<ellipse cx="130.344" cy="276.043" rx="22" ry="6.5" transform="rotate(31.9707 130.344 276.043)" fill="white"/>
<ellipse cx="131.403" cy="274.346" rx="26" ry="8.5" transform="rotate(31.9707 131.403 274.346)" stroke="white"/>
<path d="M109.347 260.58C103.363 269.222 92.7218 289.104 98.0281 299.488C104.661 312.469 125.388 318.923 134.711 310.596C142.169 303.935 147.846 296.791 149.753 294.051" stroke="white"/>
<path d="M104.228 298.054L101.1 295.512" stroke="white" stroke-width="0.5"/>
<path d="M86.8435 296.633L86.3652 294.567" stroke="white" stroke-width="0.5"/>
<path d="M88.8591 299.07L88.3809 297.003" stroke="white" stroke-width="0.5"/>
<path d="M118.604 319.404C118.604 319.404 124.118 322.846 128.465 324.38C132.812 325.914 135.568 325.277 135.568 325.277" stroke="white" stroke-width="0.5"/>
<path d="M140.268 296.972L131.264 306.676" stroke="white" stroke-width="0.5"/>
<path d="M102.742 294.769L100.462 292.756" stroke="white" stroke-width="0.5"/>
<path d="M102.105 292.013L100.673 290.53" stroke="white" stroke-width="0.5"/>
<path d="M116.401 269.108L115.499 266.777" stroke="#111111" stroke-width="0.5"/>
<path d="M118.841 271.81L118.362 269.743" stroke="#111111" stroke-width="0.5"/>
<path d="M121.385 273.398L120.907 271.332" stroke="#111111" stroke-width="0.5"/>
<path d="M153.459 288.113C159.174 288.537 169.715 292.247 166.155 303.7C162.595 315.152 149.165 311.759 142.895 308.632" stroke="white"/>
<path d="M149.753 294.051C153.039 294.137 159.218 295.405 159.084 299.875C158.876 306.819 151.243 303.626 147.532 303.274" stroke="white"/>
<path d="M96.3656 294.598C87.479 290.632 80.8611 289.221 79.4736 291.444C77.2804 294.958 88.9855 306.222 105.618 316.603C122.25 326.984 137.511 332.551 139.704 329.037C140.916 327.096 137.885 322.789 132.125 317.572" stroke="white"/>
<path d="M77.5597 219.134C82.3247 221.96 96.3927 227.156 114.544 225.331C137.233 223.05 156.265 231.96 157.683 243.206C158.989 253.565 148.872 260.488 141.471 264.317" stroke="white"/>
<path d="M100.486 321.328C97.4145 324.531 92.3375 333.651 96.6023 344.505" stroke="white"/>
</svg>
