<svg width="32" height="32" viewBox="0 0 32 32" fill="none" xmlns="http://www.w3.org/2000/svg">
<path d="M16.705 9.70668L22.8775 3.68936C23.268 3.30865 23.9012 3.30865 24.2917 3.68936L28.578 7.86796C28.9685 8.24867 28.9685 8.86592 28.578 9.24663L22.637 15.0383M16.1954 21.3181L11.5129 25.8829C11.3654 26.0266 11.1756 26.1218 10.9699 26.1552L5.64567 27.019C5.10088 27.1074 4.58574 26.7485 4.49507 26.2174C4.47526 26.1013 4.47716 25.9827 4.5007 25.8673L5.52648 20.8367C5.56505 20.6476 5.6603 20.4738 5.80018 20.3374L10.4742 15.7809L16.1954 21.3181Z" stroke="#111111" stroke-width="2" stroke-linecap="round" stroke-linejoin="round"/>
<path d="M21.1085 5.41406L24.8571 9.06849L26.8091 10.9714" stroke="#111111" stroke-width="2" stroke-linecap="round" stroke-linejoin="round"/>
<path d="M6.88477 20.7866L11.0401 24.8375" stroke="#111111" stroke-width="2" stroke-linecap="round" stroke-linejoin="round"/>
<path d="M10.2434 3.70276L28.0685 21.0799C28.459 21.4606 28.459 22.0779 28.0685 22.4586L23.7822 26.6372C23.3916 27.0179 22.7585 27.0179 22.3679 26.6372L4.54282 9.26005C4.15229 8.87934 4.15229 8.26208 4.54282 7.88137L8.82915 3.70276C9.21967 3.32205 9.85284 3.32205 10.2434 3.70276Z" stroke="#111111" stroke-width="2" stroke-linecap="round" stroke-linejoin="round"/>
<path d="M11.2109 5.54895L10.2903 6.44629" stroke="#111111" stroke-width="2" stroke-linecap="round" stroke-linejoin="round"/>
<path d="M13.2446 7.73425L11.6115 9.32642" stroke="#111111" stroke-width="2" stroke-linecap="round" stroke-linejoin="round"/>
<path d="M15.4863 9.7168L14.5657 10.6141" stroke="#111111" stroke-width="2" stroke-linecap="round" stroke-linejoin="round"/>
<path d="M17.52 11.9022L15.8869 13.4943" stroke="#111111" stroke-width="2" stroke-linecap="round" stroke-linejoin="round"/>
<path d="M19.7617 13.8848L18.8411 14.7821" stroke="#111111" stroke-width="2" stroke-linecap="round" stroke-linejoin="round"/>
<path d="M21.7954 16.0702L20.1623 17.6622" stroke="#111111" stroke-width="2" stroke-linecap="round" stroke-linejoin="round"/>
<path d="M24.0371 18.0527L23.1165 18.9501" stroke="#111111" stroke-width="2" stroke-linecap="round" stroke-linejoin="round"/>
<path d="M26.0708 20.238L24.4377 21.8302" stroke="#111111" stroke-width="2" stroke-linecap="round" stroke-linejoin="round"/>
</svg>
