<svg width="32" height="32" viewBox="0 0 32 32" fill="none" xmlns="http://www.w3.org/2000/svg">
<path fill-rule="evenodd" clip-rule="evenodd" d="M4 5H28C29.1046 5 30 5.87293 30 6.94974V25.4723C30 26.5491 29.1046 27.422 28 27.422H4C2.89543 27.422 2 26.5491 2 25.4723V6.94974C2 5.87293 2.89543 5 4 5Z" stroke="#111111" stroke-width="2" stroke-linecap="round" stroke-linejoin="round"/>
<path fill-rule="evenodd" clip-rule="evenodd" d="M4 5H28C29.1046 5 30 5.87293 30 6.94974V12.3115H2V6.94974C2 5.87293 2.89543 5 4 5Z" stroke="#111111" stroke-width="2" stroke-linecap="round" stroke-linejoin="round"/>
<path d="M5.25 9.87439C5.94036 9.87439 6.5 9.32882 6.5 8.65582C6.5 7.98283 5.94036 7.43726 5.25 7.43726C4.55964 7.43726 4 7.98283 4 8.65582C4 9.32882 4.55964 9.87439 5.25 9.87439Z" fill="#111111"/>
<path d="M8.25 9.87439C8.94036 9.87439 9.5 9.32882 9.5 8.65582C9.5 7.98283 8.94036 7.43726 8.25 7.43726C7.55964 7.43726 7 7.98283 7 8.65582C7 9.32882 7.55964 9.87439 8.25 9.87439Z" fill="#111111"/>
<path d="M11.25 9.87439C11.9404 9.87439 12.5 9.32882 12.5 8.65582C12.5 7.98283 11.9404 7.43726 11.25 7.43726C10.5596 7.43726 10 7.98283 10 8.65582C10 9.32882 10.5596 9.87439 11.25 9.87439Z" fill="#111111"/>
</svg>
