<svg width="181" height="181" viewBox="0 0 181 181" fill="none" xmlns="http://www.w3.org/2000/svg">
<path d="M158.65 83.2529C164.045 53.8235 141.373 26.8672 111.711 26.8672C94.5707 26.8672 79.2324 35.96 70.7802 50.0345C59.2513 46.3091 47.3973 47.8968 37.631 54.6199C27.8701 61.3392 22.0406 71.9779 21.5687 83.6139C8.52609 89.7583 0 102.745 0 117.014C0 119.458 0.239684 121.902 0.71198 124.28C4.1478 141.578 19.4589 154.133 37.1191 154.133H143.527C164.19 154.133 181 137.481 181 117.014C181 102.409 172.139 89.2249 158.65 83.2529ZM143.527 143.527H37.1191C22.625 143.527 10.6055 131.778 10.6055 117.014C10.6055 105.966 17.8656 95.9724 28.6715 92.1456L32.4365 90.8122L32.1943 86.8252C31.6248 77.457 35.9055 68.6831 43.645 63.3553C51.8293 57.721 61.8695 57.3318 71.0598 61.499L75.8365 63.665L78.0548 58.9123C84.1339 45.8885 97.3448 37.4727 111.711 37.4727C132.178 37.4727 148.83 54.1243 148.83 74.5918C148.83 80.6461 147.553 84.3117 146.141 89.1651C150.095 91.2176 150.734 91.598 152.066 92.0541C163.029 95.8091 170.395 105.84 170.395 117.014C170.395 131.633 158.342 143.527 143.527 143.527Z" fill="#111111"/>
</svg>
