<svg width="693" height="143" viewBox="0 0 693 143" fill="none" xmlns="http://www.w3.org/2000/svg">
<path d="M99.9234 66.8593C103.321 48.0138 89.0413 30.7521 70.3593 30.7521C59.5639 30.7521 49.9033 36.5747 44.5798 45.5875C37.3185 43.202 29.8524 44.2186 23.7013 48.5238C17.5536 52.8266 13.8819 59.6391 13.5847 67.0903C5.37003 71.0251 0 79.3412 0 88.4783C0 90.0432 0.150961 91.6086 0.448429 93.1315C2.61243 104.208 12.2559 112.248 23.3788 112.248H90.3984C103.412 112.248 114 101.585 114 88.4783C114 79.1258 108.419 70.6834 99.9234 66.8593ZM90.3984 105.457H23.3788C14.25 105.457 6.67968 97.933 6.67968 88.4783C6.67968 81.404 11.2524 75.0042 18.0583 72.5538L20.4295 71.6999L20.2771 69.1468C19.9183 63.1477 22.6146 57.5293 27.4891 54.1177C32.6439 50.5096 38.9674 50.2604 44.7559 52.929L47.7645 54.3159L49.1616 51.2724C52.9903 42.9325 61.311 37.5434 70.3593 37.5434C83.2504 37.5434 93.7383 48.2065 93.7383 61.313C93.7383 65.1899 92.9338 67.5372 92.0443 70.6451C94.5346 71.9595 94.9377 72.2031 95.7762 72.4951C102.681 74.8998 107.32 81.323 107.32 88.4783C107.32 97.8401 99.729 105.457 90.3984 105.457Z" fill="white"/>
<path d="M170.649 103.863H185.203V70.7885C185.203 64.7557 183.093 59.7284 178.875 55.7065C174.657 51.6846 169.171 49.6737 162.528 49.6737C159.943 49.6737 157.411 50.097 154.933 50.8379C152.508 51.5788 150.504 52.4255 148.975 53.3252C147.498 54.2247 146.074 55.2302 144.809 56.3944C143.543 57.5587 142.699 58.4054 142.33 58.8817C141.961 59.358 141.645 59.7284 141.434 59.993L149.502 68.0897L150.715 66.8195C151.558 65.867 152.929 64.9675 154.881 64.0678C156.885 63.1681 159.046 62.6918 161.419 62.6918C164.32 62.6918 166.588 63.4327 168.169 64.8087C169.804 66.2375 170.595 68.0367 170.595 70.2594L153.826 73.2758C148.975 74.1753 145.125 76.0805 142.33 78.9381C139.588 81.8487 138.164 85.4472 138.164 89.7865C138.164 94.0201 139.852 97.5657 143.121 100.529C146.443 103.493 150.715 104.922 155.988 104.922C158.73 104.922 161.367 104.339 163.899 103.175C166.429 102.011 168.117 101.058 168.855 100.318C169.593 99.5766 170.173 98.9945 170.595 98.4654L170.649 103.863ZM159.784 93.0147C155.145 93.0147 152.772 91.2155 152.772 87.6169C152.772 84.283 154.776 82.272 158.73 81.637L170.595 79.4674V81.1078C170.595 84.8651 169.647 87.7757 167.695 89.8925C165.744 92.0092 163.107 93.0147 159.784 93.0147ZM205.77 44.8051C205.77 46.9219 205.189 48.6153 204.03 49.8853C202.869 51.2083 201.445 51.8434 199.81 51.8434H194.959V64.8615H204.135V86.5057C204.135 98.7829 209.671 104.922 220.851 104.922C224.437 104.974 227.707 104.445 230.607 103.334V90.845L229.974 91.0567C229.5 91.2683 228.814 91.48 227.917 91.6917C227.022 91.9034 226.125 91.9562 225.175 91.9562C223.278 91.9562 221.748 91.3741 220.534 90.21C219.322 89.0456 218.742 87.6698 218.742 85.9764V64.8615H229.5V51.8434H218.742V35.068H205.77V44.8051ZM258.187 27.9767H243.58V103.863H258.187V76.2392C258.187 72.2702 259.137 69.201 261.088 67.0312C262.986 64.8615 265.623 63.7503 268.945 63.7503C271.951 63.7503 274.429 64.7557 276.328 66.7667C278.226 68.7776 279.228 71.3707 279.228 74.5987V103.863H293.782V72.9583C293.782 65.867 291.832 60.2047 288.034 55.9711C284.238 51.7904 279.282 49.6737 273.27 49.6737C270.369 49.6737 267.627 50.4146 264.99 51.7904C262.353 53.2193 260.665 54.3307 259.927 55.1772C259.189 56.0241 258.556 56.712 258.135 57.2941L258.187 27.9767ZM358.014 82.1661L358.54 76.2392C358.54 68.6718 356.01 62.3743 351 57.2941C345.937 52.2138 339.661 49.6737 332.121 49.6737C324.528 49.6737 318.04 52.4255 312.661 57.8233C307.23 63.2211 304.54 69.7301 304.54 77.2977C304.54 84.9181 307.282 91.4271 312.768 96.8249C318.252 102.223 324.843 104.922 332.649 104.922C335.391 104.922 338.028 104.604 340.611 103.969C343.195 103.334 345.304 102.646 346.939 101.799C348.522 100.953 350.05 100 351.528 98.9417C352.951 97.8832 353.901 97.1425 354.322 96.719L355.324 95.7135L347.782 85.9764L346.254 87.6169C345.304 88.7282 343.617 89.8395 341.296 90.8979C338.976 91.9562 336.445 92.4855 333.703 92.4855C329.907 92.4855 326.742 91.5329 324.264 89.5221C321.732 87.511 320.203 85.0767 319.675 82.1661H358.014ZM332.121 62.1627C335.179 62.1627 337.816 63.1152 339.925 64.9145C342.034 66.7667 343.407 69.095 343.986 71.8998H319.675C320.52 69.0422 322.048 66.6609 324.211 64.8615C326.373 63.0623 329.01 62.1627 332.121 62.1627ZM378.58 51.8434H371.038V103.863H378.58V75.128C378.58 70.1006 380.109 65.9728 383.22 62.7448C386.28 59.4638 390.129 57.8762 394.77 57.8762C398.883 57.8762 402.205 59.2521 404.842 62.0039C407.478 64.7557 408.796 68.4601 408.796 73.0111V103.916H416.391V73.0111C416.391 66.2904 414.439 60.8926 410.536 56.8178C406.635 52.7959 401.52 50.732 395.296 50.732C393.187 50.732 391.183 51.0497 389.232 51.6846C387.282 52.3196 385.699 53.0075 384.538 53.7484C383.379 54.4893 382.272 55.389 381.217 56.3944C380.161 57.4529 379.476 58.1408 379.213 58.5112C378.897 58.9345 378.685 59.1991 378.58 59.4109V51.8434ZM475.242 77.8798C475.242 83.4891 473.343 88.2519 469.653 92.115C465.961 95.9781 461.478 97.8832 456.31 97.8832C451.143 97.8832 446.659 95.9781 442.968 92.0622C439.278 88.1461 437.431 83.4363 437.431 77.8268C437.431 72.2174 439.278 67.5076 442.968 63.6443C446.659 59.7812 451.143 57.8233 456.31 57.8233C461.478 57.8233 465.961 59.7812 469.653 63.6443C473.343 67.5076 475.242 72.2702 475.242 77.8798ZM429.891 77.8798C429.891 85.5001 432.421 91.9034 437.59 97.1425C442.758 102.329 448.98 104.974 456.363 104.974C463.693 104.974 469.915 102.329 475.032 97.1425C480.199 91.9034 482.73 85.5001 482.73 77.8798C482.73 70.2594 480.199 63.8561 475.032 58.6171C469.915 53.378 463.693 50.732 456.363 50.732C448.98 50.732 442.758 53.378 437.59 58.6171C432.421 63.8561 429.891 70.2594 429.891 77.8798ZM535.728 77.8798C535.728 83.2246 533.83 87.8815 530.032 91.9034C526.236 95.9253 522.018 97.8832 517.324 97.8832C512.895 97.8832 508.887 95.9781 505.353 92.0622C501.82 88.1461 500.028 83.4363 500.028 77.8798C500.028 72.3232 501.82 67.6134 505.353 63.6973C508.887 59.7812 512.895 57.8233 517.324 57.8233C522.018 57.8233 526.236 59.8342 530.032 63.8561C533.83 67.878 535.728 72.5349 535.728 77.8798ZM535.728 59.993L534.99 58.9875C534.463 58.3524 533.671 57.6115 532.617 56.659C531.562 55.7595 530.349 54.8598 528.925 54.0131C527.554 53.1664 525.814 52.3726 523.758 51.7376C521.701 51.1025 519.538 50.785 517.324 50.785C510.732 50.785 504.931 53.431 499.974 58.7759C495.018 64.0678 492.538 70.471 492.538 77.8798C492.538 85.2885 495.018 91.6917 499.974 96.9837C504.931 102.276 510.732 104.974 517.324 104.974C519.538 104.974 521.701 104.657 523.81 104.022C525.919 103.387 527.607 102.646 528.925 101.799C530.296 100.953 531.51 100.053 532.669 98.9945C533.83 97.9362 534.621 97.1425 534.937 96.719C535.306 96.2957 535.57 95.9781 535.728 95.7665V103.916H543.27V28.0297H535.728V59.993ZM606.972 80.6845L607.5 76.7684C607.5 69.2538 605.127 63.0623 600.381 58.1408C595.635 53.2193 589.728 50.732 582.661 50.732C575.806 50.732 569.901 53.378 564.838 58.67C559.776 63.9619 557.296 70.3122 557.296 77.8268C557.296 85.3413 559.828 91.7446 564.943 97.0365C570.006 102.329 576.123 104.922 583.189 104.922C585.774 104.922 588.304 104.551 590.782 103.757C593.262 102.963 595.266 102.117 596.847 101.164C598.429 100.212 599.853 99.1533 601.224 97.9362C602.595 96.719 603.439 95.8723 603.861 95.3431C604.282 94.814 604.599 94.4435 604.81 94.1259L599.959 89.2574L598.113 91.3741C596.953 92.8559 594.949 94.2847 592.207 95.7135C589.411 97.1953 586.407 97.8832 583.189 97.8832C578.338 97.8832 574.171 96.1898 570.586 92.7501C567 89.3633 565.101 85.2885 564.838 80.5785L606.972 80.6845ZM582.661 57.8233C587.197 57.8233 591.046 59.3579 594.264 62.4273C597.48 65.4966 599.379 69.4127 599.959 74.0695H564.838C565.417 69.6773 567.421 65.867 570.796 62.639C574.171 59.4638 578.127 57.8233 582.661 57.8233ZM618.838 99.5238C618.838 101.111 619.312 102.434 620.262 103.44C621.211 104.445 622.53 104.922 624.163 104.922C625.851 104.922 627.169 104.445 628.119 103.44C629.068 102.434 629.542 101.111 629.542 99.5238C629.542 97.9362 629.068 96.6662 628.119 95.6607C627.169 94.6552 625.851 94.1259 624.163 94.1259C622.53 94.1259 621.211 94.6552 620.262 95.6607C619.312 96.6662 618.838 97.9362 618.838 99.5238Z" fill="white"/>
</svg>
