<svg width="306" height="306" viewBox="0 0 306 306" fill="none" xmlns="http://www.w3.org/2000/svg">
<path d="M203.681 6.83536L76.7979 18.1282C34.3836 21.9032 3.06428 59.3928 6.84427 101.864L18.1522 228.916C21.9322 271.387 59.3801 302.757 101.794 298.982L228.678 287.689C271.092 283.914 302.412 246.424 298.632 203.953L287.324 76.9006C283.544 34.4297 246.096 3.06041 203.681 6.83536Z" fill="#0E0E0E"/>
<path d="M203.681 6.83536L76.7979 18.1282C34.3836 21.9032 3.06428 59.3928 6.84427 101.864L18.1522 228.916C21.9322 271.387 59.3801 302.757 101.794 298.982L228.678 287.689C271.092 283.914 302.412 246.424 298.632 203.953L287.324 76.9006C283.544 34.4297 246.096 3.06041 203.681 6.83536Z" fill="#0E0E0E"/>
<path d="M250.829 168.388C249.648 155.122 237.951 145.324 224.703 146.503C211.454 147.682 201.672 159.392 202.852 172.658L204.826 194.831C206.006 208.097 217.703 217.895 230.952 216.716C244.2 215.537 253.983 203.827 252.802 190.561L250.829 168.388Z" fill="#ECECEC"/>
<path d="M177.019 174.957C175.838 161.691 164.141 151.893 150.893 153.072C137.644 154.251 127.861 165.961 129.042 179.227L131.016 201.4C132.196 214.666 143.893 224.464 157.142 223.285C170.39 222.106 180.173 210.396 178.992 197.13L177.019 174.957Z" fill="#ECECEC"/>
</svg>
