<svg width="771" height="642" viewBox="0 0 771 642" fill="none" xmlns="http://www.w3.org/2000/svg">
<path d="M436.297 36.9185L107.817 97.9144C-1.98672 118.304 -74.449 223.965 -54.0322 333.915L7.04504 662.833C27.4618 772.782 133.026 845.385 242.83 824.996L571.309 764C681.113 743.61 753.575 637.949 733.158 528L672.081 199.082C651.664 89.1319 546.1 16.529 436.297 36.9185Z" fill="#111111" fill-opacity="0.03"/>
<path d="M436.297 36.9185L107.817 97.9144C-1.98672 118.304 -74.449 223.965 -54.0322 333.915L7.04504 662.833C27.4618 772.782 133.026 845.385 242.83 824.996L571.309 764C681.113 743.61 753.575 637.949 733.158 528L672.081 199.082C651.664 89.1319 546.1 16.529 436.297 36.9185Z" fill="#111111" fill-opacity="0.03"/>
<path d="M599.516 447.012C593.139 412.668 560.165 389.99 525.868 396.359C491.57 402.728 468.936 435.732 475.313 470.075L485.972 527.476C492.349 561.82 525.323 584.498 559.621 578.129C593.919 571.76 616.553 538.756 610.175 504.413L599.516 447.012Z" fill="#ECECEC"/>
<path d="M408.435 482.496C402.057 448.152 369.084 425.474 334.786 431.843C300.488 438.212 277.854 471.215 284.231 505.559L294.89 562.96C301.267 597.304 334.241 619.982 368.539 613.613C402.837 607.244 425.471 574.24 419.094 539.897L408.435 482.496Z" fill="#ECECEC"/>
</svg>
