<svg width="306" height="307" viewBox="0 0 306 307" fill="none" xmlns="http://www.w3.org/2000/svg">
<path d="M203.71 7.29288L76.826 18.5857C34.4117 22.3607 3.09236 59.8504 6.87235 102.321L18.1803 229.374C21.9603 271.845 59.4081 303.214 101.822 299.439L228.706 288.146C271.12 284.371 302.44 246.882 298.66 204.411L287.352 77.3581C283.572 34.8872 246.124 3.51793 203.71 7.29288Z" fill="#111111" fill-opacity="0.04"/>
<path d="M203.71 7.29288L76.826 18.5857C34.4117 22.3607 3.09236 59.8504 6.87235 102.321L18.1803 229.374C21.9603 271.845 59.4081 303.214 101.822 299.439L228.706 288.146C271.12 284.371 302.44 246.882 298.66 204.411L287.352 77.3581C283.572 34.8872 246.124 3.51793 203.71 7.29288Z" fill="#111111" fill-opacity="0.04"/>
<path d="M250.857 168.846C249.676 155.579 237.979 145.781 224.731 146.96C211.482 148.139 201.7 159.849 202.88 173.116L204.854 195.288C206.034 208.554 217.731 218.353 230.98 217.174C244.228 215.994 254.011 204.284 252.83 191.018L250.857 168.846Z" fill="#ECECEC"/>
<path d="M177.047 175.415C175.866 162.149 164.169 152.35 150.921 153.53C137.672 154.709 127.89 166.419 129.07 179.685L131.044 201.858C132.224 215.124 143.921 224.922 157.17 223.743C170.418 222.564 180.201 210.854 179.02 197.588L177.047 175.415Z" fill="#ECECEC"/>
</svg>
