<svg width="330" height="330" viewBox="0 0 330 330" fill="none" xmlns="http://www.w3.org/2000/svg">
<g clip-path="url(#clip0)">
<path d="M204.071 15.3131L78.4631 36.5142C36.4751 43.6013 8.18988 83.4299 15.2864 125.474L36.5158 251.249C43.6124 293.294 83.4034 321.633 125.391 314.546L251 293.344C292.988 286.257 321.273 246.428 314.177 204.384L292.947 78.6083C285.851 36.5642 246.06 8.22594 204.071 15.3131Z" fill="#111111" fill-opacity="0.03"/>
<path d="M204.071 15.3131L78.4631 36.5142C36.4751 43.6013 8.18988 83.4299 15.2864 125.474L36.5158 251.249C43.6124 293.294 83.4034 321.633 125.391 314.546L251 293.344C292.988 286.257 321.273 246.428 314.177 204.384L292.947 78.6083C285.851 36.5642 246.06 8.22594 204.071 15.3131Z" fill="#111111" fill-opacity="0.03"/>
<path d="M263.734 172.674C261.517 159.542 249.088 150.69 235.973 152.904C222.858 155.117 214.023 167.558 216.239 180.691L219.945 202.641C222.161 215.774 234.589 224.625 247.705 222.411C260.82 220.198 269.656 207.757 267.439 194.624L263.734 172.674Z" fill="#F7F7F7"/>
<path d="M190.666 185.007C188.449 171.875 176.02 163.023 162.905 165.237C149.789 167.45 140.954 179.891 143.171 193.024L146.877 214.974C149.092 228.107 161.521 236.958 174.637 234.744C187.752 232.531 196.587 220.09 194.37 206.957L190.666 185.007Z" fill="#F7F7F7"/>
</g>
<defs>
<clipPath id="clip0">
<rect width="306" height="306" fill="white" transform="translate(0.480957 24.46) rotate(-4.4945)"/>
</clipPath>
</defs>
</svg>
