<svg width="24" height="24" viewBox="0 0 24 24" fill="none" xmlns="http://www.w3.org/2000/svg">
<path d="M20 0H4C1.79086 0 0 1.79086 0 4V20C0 22.2091 1.79086 24 4 24H20C22.2091 24 24 22.2091 24 20V4C24 1.79086 22.2091 0 20 0Z" fill="white"/>
<g clip-path="url(#clip0_2014_10)">
<path d="M17.5447 7.06862C16.5249 6.61559 15.4313 6.28181 14.2879 6.09065C14.2671 6.08696 14.2463 6.09618 14.2356 6.11462C14.0949 6.3568 13.9392 6.67275 13.8301 6.92109C12.6003 6.74283 11.3768 6.74283 10.1722 6.92109C10.0631 6.66723 9.90166 6.3568 9.76038 6.11462C9.74966 6.09679 9.72886 6.08757 9.70803 6.09065C8.56527 6.2812 7.47171 6.61498 6.45129 7.06862C6.44246 7.07231 6.43488 7.07846 6.42986 7.08644C4.35559 10.0868 3.78737 13.0133 4.06612 15.9036C4.06738 15.9177 4.07558 15.9313 4.08693 15.9398C5.45547 16.9129 6.78114 17.5036 8.08219 17.8952C8.10301 17.9013 8.12507 17.894 8.13832 17.8773C8.44608 17.4704 8.72043 17.0414 8.95565 16.5902C8.96953 16.5638 8.95628 16.5324 8.92791 16.522C8.49275 16.3621 8.0784 16.1673 7.67982 15.946C7.64829 15.9282 7.64577 15.8845 7.67477 15.8636C7.75865 15.8028 7.84255 15.7394 7.92264 15.6755C7.93713 15.6638 7.95732 15.6614 7.97435 15.6688C10.5929 16.8262 13.4277 16.8262 16.0153 15.6688C16.0323 15.6608 16.0525 15.6632 16.0677 15.6749C16.1478 15.7388 16.2316 15.8028 16.3161 15.8636C16.3451 15.8845 16.3433 15.9282 16.3117 15.946C15.9131 16.1716 15.4988 16.3621 15.063 16.5213C15.0346 16.5318 15.022 16.5638 15.0359 16.5902C15.2762 17.0408 15.5505 17.4698 15.8526 17.8767C15.8652 17.894 15.8879 17.9013 15.9087 17.8952C17.2161 17.5036 18.5417 16.9129 19.9103 15.9398C19.9223 15.9313 19.9298 15.9183 19.9311 15.9042C20.2647 12.5627 19.3723 9.66016 17.5655 7.08706C17.5611 7.07846 17.5535 7.07231 17.5447 7.06862ZM9.34668 14.1437C8.55833 14.1437 7.90875 13.443 7.90875 12.5824C7.90875 11.7218 8.54574 11.0211 9.34668 11.0211C10.1539 11.0211 10.7972 11.728 10.7846 12.5824C10.7846 13.443 10.1476 14.1437 9.34668 14.1437ZM14.6632 14.1437C13.8748 14.1437 13.2253 13.443 13.2253 12.5824C13.2253 11.7218 13.8622 11.0211 14.6632 11.0211C15.4704 11.0211 16.1137 11.728 16.1011 12.5824C16.1011 13.443 15.4704 14.1437 14.6632 14.1437Z" fill="#5865F2"/>
</g>
<defs>
<clipPath id="clip0_2014_10">
<rect width="16" height="12" fill="white" transform="translate(4 6)"/>
</clipPath>
</defs>
</svg>
