<svg width="355" height="151" viewBox="0 0 355 151" fill="none" xmlns="http://www.w3.org/2000/svg">
<path d="M213.975 55.1478H228.311L208.567 118.174H195.237L182.158 75.6943L168.954 118.174H155.624L135.88 55.1478H150.216L162.414 98.6358L175.619 55.1478H188.572L201.651 98.6358L213.975 55.1478ZM251.14 43.1729C249.463 44.8536 247.451 45.6939 245.103 45.6939C242.756 45.6939 240.702 44.8536 238.941 43.1729C237.264 41.4081 236.426 39.3493 236.426 36.9963C236.426 34.6433 237.264 32.6265 238.941 30.9458C240.618 29.1811 242.672 28.2987 245.103 28.2987C247.535 28.2987 249.589 29.1811 251.265 30.9458C252.942 32.6265 253.78 34.6433 253.78 36.9963C253.78 39.3493 252.9 41.4081 251.14 43.1729ZM238.312 118.174V55.1478H251.894V118.174H238.312ZM323.248 118.174H307.025L281.245 89.0559V118.174H267.663V29.9374H281.245V83.0054L305.642 55.1478H322.242L294.575 86.0306L323.248 118.174ZM345.212 43.1729C343.535 44.8536 341.523 45.6939 339.176 45.6939C336.828 45.6939 334.774 44.8536 333.014 43.1729C331.337 41.4081 330.498 39.3493 330.498 36.9963C330.498 34.6433 331.337 32.6265 333.014 30.9458C334.69 29.1811 336.744 28.2987 339.176 28.2987C341.607 28.2987 343.661 29.1811 345.338 30.9458C347.014 32.6265 347.853 34.6433 347.853 36.9963C347.853 39.3493 346.973 41.4081 345.212 43.1729ZM332.385 118.174V55.1478H345.966V118.174H332.385Z" fill="black"/>
<path d="M79.9078 24.9481H30.1292C13.4893 24.9481 0 38.4691 0 55.1481V105.044C0 121.723 13.4893 135.244 30.1292 135.244H79.9078C96.5476 135.244 110.037 121.723 110.037 105.044V55.1481C110.037 38.4691 96.5476 24.9481 79.9078 24.9481Z" fill="black"/>
<path d="M92.6627 89.5289C92.6627 84.3191 88.4492 80.0957 83.2517 80.0957C78.0541 80.0957 73.8406 84.3191 73.8406 89.5289V98.2364C73.8406 103.446 78.0541 107.67 83.2517 107.67C88.4492 107.67 92.6627 103.446 92.6627 98.2364V89.5289Z" fill="white"/>
<path d="M63.7056 89.5289C63.7056 84.3191 59.4921 80.0957 54.2946 80.0957C49.097 80.0957 44.8835 84.3191 44.8835 89.5289V98.2364C44.8835 103.446 49.097 107.67 54.2946 107.67C59.4921 107.67 63.7056 103.446 63.7056 98.2364V89.5289Z" fill="white"/>
</svg>
