<svg width="313" height="133" viewBox="0 0 313 133" fill="none" xmlns="http://www.w3.org/2000/svg">
<path d="M188.659 48.5739H201.299L183.892 104.087H172.138L160.607 66.6711L148.965 104.087H137.212L119.804 48.5739H132.444L143.199 86.8779L154.841 48.5739H166.262L177.793 86.8779L188.659 48.5739ZM221.427 38.0264C219.949 39.5067 218.175 40.2469 216.105 40.2469C214.035 40.2469 212.224 39.5067 210.672 38.0264C209.194 36.472 208.455 34.6586 208.455 32.5861C208.455 30.5136 209.194 28.7372 210.672 27.2568C212.151 25.7025 213.962 24.9253 216.105 24.9253C218.249 24.9253 220.06 25.7025 221.538 27.2568C223.017 28.7372 223.756 30.5136 223.756 32.5861C223.756 34.6586 222.98 36.472 221.427 38.0264ZM210.118 104.087V48.5739H222.093V104.087H210.118ZM285.004 104.087H270.701L247.971 78.4399V104.087H235.996V26.3686H247.971V73.1106L269.481 48.5739H284.117L259.724 75.7752L285.004 104.087ZM304.37 38.0264C302.892 39.5067 301.118 40.2469 299.048 40.2469C296.978 40.2469 295.167 39.5067 293.615 38.0264C292.136 36.472 291.397 34.6586 291.397 32.5861C291.397 30.5136 292.136 28.7372 293.615 27.2568C295.093 25.7025 296.904 24.9253 299.048 24.9253C301.192 24.9253 303.002 25.7025 304.481 27.2568C305.959 28.7372 306.698 30.5136 306.698 32.5861C306.698 34.6586 305.922 36.472 304.37 38.0264ZM293.06 104.087V48.5739H305.035V104.087H293.06Z" fill="white"/>
<path d="M70.4539 21.9741H26.5646C11.8934 21.9741 0 33.8833 0 48.5741V92.5219C0 107.213 11.8934 119.122 26.5646 119.122H70.4539C85.1251 119.122 97.0185 107.213 97.0185 92.5219V48.5741C97.0185 33.8833 85.1251 21.9741 70.4539 21.9741Z" fill="#111111"/>
<path d="M70.4539 21.9741H26.5646C11.8934 21.9741 0 33.8833 0 48.5741V92.5219C0 107.213 11.8934 119.122 26.5646 119.122H70.4539C85.1251 119.122 97.0185 107.213 97.0185 92.5219V48.5741C97.0185 33.8833 85.1251 21.9741 70.4539 21.9741Z" fill="#111111"/>
<path d="M70.4539 21.9741H26.5646C11.8934 21.9741 0 33.8833 0 48.5741V92.5219C0 107.213 11.8934 119.122 26.5646 119.122H70.4539C85.1251 119.122 97.0185 107.213 97.0185 92.5219V48.5741C97.0185 33.8833 85.1251 21.9741 70.4539 21.9741Z" fill="white"/>
<path d="M81.6997 78.8565C81.6997 74.2678 77.9848 70.5479 73.4021 70.5479C68.8195 70.5479 65.1045 74.2678 65.1045 78.8565V86.5261C65.1045 91.1149 68.8195 94.8348 73.4021 94.8348C77.9848 94.8348 81.6997 91.1149 81.6997 86.5261V78.8565Z" fill="#161616"/>
<path d="M56.1685 78.8565C56.1685 74.2678 52.4535 70.5479 47.8709 70.5479C43.2882 70.5479 39.5732 74.2678 39.5732 78.8565V86.5261C39.5732 91.1149 43.2882 94.8348 47.8709 94.8348C52.4535 94.8348 56.1685 91.1149 56.1685 86.5261V78.8565Z" fill="#161616"/>
</svg>
