<svg width="192" height="82" viewBox="0 0 192 82" fill="none" xmlns="http://www.w3.org/2000/svg">
<path d="M115.727 29.948H123.481L112.803 64.1741H105.593L98.5197 41.1057L91.3781 64.1741H84.1686L73.4902 29.948H81.2439L87.8414 53.564L94.9829 29.948H101.988L109.062 53.564L115.727 29.948ZM135.828 23.445C134.921 24.3577 133.833 24.8141 132.563 24.8141C131.294 24.8141 130.183 24.3577 129.23 23.445C128.324 22.4867 127.87 21.3687 127.87 20.0909C127.87 18.8131 128.324 17.7179 129.23 16.8052C130.137 15.8468 131.248 15.3677 132.563 15.3677C133.878 15.3677 134.989 15.8468 135.896 16.8052C136.803 17.7179 137.256 18.8131 137.256 20.0909C137.256 21.3687 136.78 22.4867 135.828 23.445ZM128.89 64.1741V29.948H136.236V64.1741H128.89ZM174.827 64.1741H166.053L152.11 48.3616V64.1741H144.765V16.2576H152.11V45.0759L165.305 29.948H174.283L159.32 46.7188L174.827 64.1741ZM186.707 23.445C185.8 24.3577 184.711 24.8141 183.442 24.8141C182.172 24.8141 181.061 24.3577 180.109 23.445C179.202 22.4867 178.749 21.3687 178.749 20.0909C178.749 18.8131 179.202 17.7179 180.109 16.8052C181.016 15.8468 182.127 15.3677 183.442 15.3677C184.757 15.3677 185.868 15.8468 186.775 16.8052C187.681 17.7179 188.135 18.8131 188.135 20.0909C188.135 21.3687 187.659 22.4867 186.707 23.445ZM179.769 64.1741V29.948H187.115V64.1741H179.769Z" fill="#ECECEC"/>
<path d="M43.2177 13.5479H16.2952C7.29561 13.5479 0 20.8904 0 29.9479V57.0435C0 66.101 7.29561 73.4435 16.2952 73.4435H43.2177C52.2173 73.4435 59.5129 66.101 59.5129 57.0435V29.9479C59.5129 20.8904 52.2173 13.5479 43.2177 13.5479Z" fill="#111111"/>
<path d="M43.2177 13.5479H16.2952C7.29561 13.5479 0 20.8904 0 29.9479V57.0435C0 66.101 7.29561 73.4435 16.2952 73.4435H43.2177C52.2173 73.4435 59.5129 66.101 59.5129 57.0435V29.9479C59.5129 20.8904 52.2173 13.5479 43.2177 13.5479Z" fill="#111111"/>
<path d="M43.2177 13.5479H16.2952C7.29561 13.5479 0 20.8904 0 29.9479V57.0435C0 66.101 7.29561 73.4435 16.2952 73.4435H43.2177C52.2173 73.4435 59.5129 66.101 59.5129 57.0435V29.9479C59.5129 20.8904 52.2173 13.5479 43.2177 13.5479Z" fill="#ECECEC"/>
<path d="M50.1159 48.6183C50.1159 45.7891 47.837 43.4956 45.0259 43.4956C42.2149 43.4956 39.936 45.7891 39.936 48.6183V53.3469C39.936 56.176 42.2149 58.4695 45.0259 58.4695C47.837 58.4695 50.1159 56.176 50.1159 53.3469V48.6183Z" fill="#111111"/>
<path d="M34.4552 48.6183C34.4552 45.7891 32.1764 43.4956 29.3653 43.4956C26.5542 43.4956 24.2754 45.7891 24.2754 48.6183V53.3469C24.2754 56.176 26.5542 58.4695 29.3653 58.4695C32.1764 58.4695 34.4552 56.176 34.4552 53.3469V48.6183Z" fill="#111111"/>
</svg>
