<svg width="1629" height="693" viewBox="0 0 1629 693" fill="none" xmlns="http://www.w3.org/2000/svg">
<path d="M981.872 253.095H1047.66L957.059 542.348H895.89L835.876 347.392L775.284 542.348H714.115L623.517 253.095H689.302L745.277 452.68L805.868 253.095H865.306L925.32 452.68L981.872 253.095ZM1152.41 198.138C1144.72 205.851 1135.49 209.708 1124.71 209.708C1113.94 209.708 1104.52 205.851 1096.44 198.138C1088.74 190.039 1084.9 180.59 1084.9 169.791C1084.9 158.992 1088.74 149.736 1096.44 142.023C1104.13 133.924 1113.56 129.874 1124.71 129.874C1135.87 129.874 1145.3 133.924 1152.99 142.023C1160.68 149.736 1164.53 158.992 1164.53 169.791C1164.53 180.59 1160.49 190.039 1152.41 198.138ZM1093.55 542.348V253.095H1155.87V542.348H1093.55ZM1483.3 542.348H1408.86L1290.56 408.713V542.348H1228.24V137.395H1290.56V380.945L1402.51 253.095H1478.68L1351.73 394.829L1483.3 542.348ZM1584.09 198.138C1576.39 205.851 1567.16 209.708 1556.39 209.708C1545.61 209.708 1536.19 205.851 1528.11 198.138C1520.42 190.039 1516.57 180.59 1516.57 169.791C1516.57 158.992 1520.42 149.736 1528.11 142.023C1535.8 133.924 1545.23 129.874 1556.39 129.874C1567.54 129.874 1576.97 133.924 1584.66 142.023C1592.36 149.736 1596.2 158.992 1596.2 169.791C1596.2 180.59 1592.16 190.039 1584.09 198.138ZM1525.22 542.348V253.095H1587.55V542.348H1525.22Z" fill="black"/>
<path d="M366.675 114.497H138.255C61.8987 114.497 0 176.55 0 253.097V482.088C0 558.635 61.8987 620.688 138.255 620.688H366.675C443.031 620.688 504.93 558.635 504.93 482.088V253.097C504.93 176.55 443.031 114.497 366.675 114.497Z" fill="black"/>
<path d="M425.205 410.884C425.205 386.974 405.87 367.591 382.02 367.591C358.169 367.591 338.835 386.974 338.835 410.884V450.846C338.835 474.756 358.169 494.139 382.02 494.139C405.87 494.139 425.205 474.756 425.205 450.846V410.884Z" fill="white"/>
<path d="M292.327 410.884C292.327 386.974 272.993 367.591 249.143 367.591C225.292 367.591 205.958 386.974 205.958 410.884V450.846C205.958 474.756 225.292 494.139 249.143 494.139C272.993 494.139 292.327 474.756 292.327 450.846V410.884Z" fill="white"/>
</svg>
