<svg width="248" height="362" viewBox="0 0 248 362" fill="none" xmlns="http://www.w3.org/2000/svg">
<path d="M88.5776 121.435C90.2346 116.462 96.6683 91.8354 100.968 79.5652C102.187 76.0872 105.652 74.1691 109.313 74.5922C122.497 76.1158 137.658 78.3222 147.316 81.4833L143.185 94.1448C142.65 95.7858 143.606 97.539 145.276 97.9771L158.672 101.492C156.516 109.73 146.863 144.607 143.29 153.015L143.147 153.352C139.905 160.981 138.843 163.48 133.684 164.143C129.939 164.623 105.988 158.183 87.5196 152.594C83.775 151.461 81.4937 148.017 82.3416 144.197C83.833 137.48 86.5515 127.515 88.5776 121.435Z" stroke="#111111"/>
<path d="M146.526 103.486L106.881 93.9048C105.84 93.6533 104.786 94.266 104.489 95.2948L98.8238 114.943C98.5019 116.06 99.1957 117.214 100.332 117.454L140.345 125.899C141.372 126.115 142.392 125.501 142.68 124.492L147.979 105.981C148.292 104.887 147.631 103.753 146.526 103.486Z" fill="#111111"/>
<path d="M98.9715 111.993C102.08 110.378 111.075 107.106 112.952 108.139C114.574 109.032 118.052 112.26 120.272 114.224C120.844 114.73 121.654 114.847 122.349 114.534C125.746 113.004 130.288 110.938 132.573 112.437C135.126 114.111 138.35 116.776 139.644 117.899" stroke="#FFF8EF"/>
<path d="M107.026 85.6943L123.333 88.9104" stroke="black"/>
<path d="M141.413 85.8599L142.319 83.4769" stroke="black" stroke-width="0.5"/>
<path d="M88.4231 147.956L88.4258 144.915" stroke="black" stroke-width="0.5"/>
<path d="M90.229 149.273L90.0664 147.218" stroke="black" stroke-width="0.5"/>
<path d="M139.442 85.5295L140.349 83.1465" stroke="black" stroke-width="0.5"/>
<path d="M137.469 85.1988L137.717 83.7195" stroke="black" stroke-width="0.5"/>
<path d="M96.8514 126.554L137.856 134.672" stroke="black"/>
<path d="M95.6292 133.518L134.265 142.442" stroke="black"/>
<path d="M93.4593 140.174L132.095 149.097" stroke="black"/>
<path d="M147.316 81.483L158.177 98.1746" stroke="black"/>
<path d="M61.3105 200.271C55.8539 194.122 45.9803 177.947 50.1394 162.435C54.2985 146.923 70.4495 135.369 78.0051 131.531" stroke="#111111"/>
<path d="M72.1092 190.85L79.9273 180.5" stroke="black"/>
<path d="M101.965 63.9618C102.56 62.821 104.393 60.8488 106.969 62.0858C109.545 63.3228 109.239 66.2367 108.765 67.5391C109.509 66.8528 111.534 65.644 113.677 66.2992C115.82 66.9544 115.407 69.7229 114.932 71.0253C116.018 70.4603 118.411 69.8817 119.297 72.0873C120.184 74.293 119.28 75.6921 118.717 76.1159" stroke="black"/>
<path d="M163.773 292.379C163.338 291.168 163.133 288.483 165.789 287.43C168.446 286.377 170.379 288.578 171.014 289.81C171.015 288.798 171.5 286.49 173.436 285.36C175.371 284.23 177.125 286.412 177.759 287.644" stroke="black"/>
<path d="M149.261 268.973C151.283 267.54 155.75 265.076 157.445 266.677C159.141 268.279 152.696 268.875 149.261 268.973Z" fill="#111111"/>
<path d="M152.448 271.54C154.895 271.153 159.991 270.924 160.801 273.112C161.611 275.299 155.569 272.975 152.448 271.54Z" fill="#111111"/>
<rect x="128.203" y="243.349" width="6" height="6" rx="1" transform="rotate(-26.2494 128.203 243.349)" stroke="black"/>
<rect x="74.8477" y="74.0851" width="6" height="6" rx="1" transform="rotate(-26.2494 74.8477 74.0851)" stroke="black"/>
<path d="M166.05 102.864C182.333 102.642 206.636 82.9999 217.498 65.4999C228.36 47.9999 227.999 29.4999 227.999 29.4999" stroke="#111111"/>
<ellipse cx="31.3509" cy="187.693" rx="3.74486" ry="5.61729" transform="rotate(-42.1568 31.3509 187.693)" stroke="#111111"/>
<ellipse cx="175.115" cy="125.539" rx="3.74486" ry="5.61729" transform="rotate(122.97 175.115 125.539)" stroke="#111111"/>
<path d="M119.671 207.884C118.708 209.369 119.019 211.281 120.366 212.155C121.713 213.029 123.586 212.534 124.549 211.049C125.512 209.564 125.201 207.652 123.854 206.778" stroke="#111111"/>
<path d="M118.708 106.39C118.526 107.479 117.495 108.214 116.405 108.032C115.316 107.849 114.581 106.818 114.763 105.729C114.946 104.639 115.977 103.904 117.066 104.087" stroke="#FFF8EF"/>
<rect x="96.0938" y="208.335" width="55" height="7" transform="rotate(170.992 96.0938 208.335)" fill="#111111"/>
<path d="M44.3053 214.581L83.8486 208.533" stroke="#FFF8EF" stroke-width="0.5"/>
<path d="M90.8359 206.155L91.0812 207.717" stroke="#FFF8EF" stroke-width="0.5"/>
<path d="M88.8633 205.825L89.1085 207.387" stroke="#FFF8EF" stroke-width="0.5"/>
<path d="M91.6973 202.957L91.1493 199.5L71.3959 202.631" stroke="black"/>
<path d="M95.2339 202.903L101.16 201.963C102.251 201.79 103.275 202.534 103.448 203.625L103.504 203.973C103.685 205.119 102.856 206.179 101.7 206.279L96.8479 206.697" stroke="black"/>
<path d="M41.2481 210.448L34.3576 213.379C33.4909 213.748 33.5679 215.001 34.4732 215.261L39.7183 216.766" stroke="black"/>
<ellipse cx="131.196" cy="276.699" rx="22" ry="6.5" transform="rotate(31.9707 131.196 276.699)" fill="#111111"/>
<ellipse cx="132.257" cy="275.002" rx="26" ry="8.5" transform="rotate(31.9707 132.257 275.002)" stroke="#111111"/>
<path d="M110.2 261.235C104.216 269.878 93.5753 289.759 98.8816 300.144C105.514 313.125 126.241 319.579 135.564 311.252C143.023 304.591 148.7 297.446 150.606 294.707" stroke="black"/>
<path d="M105.082 298.71L101.953 296.167" stroke="black" stroke-width="0.5"/>
<path d="M87.697 297.289L87.2188 295.222" stroke="black" stroke-width="0.5"/>
<path d="M89.7126 299.726L89.2344 297.659" stroke="black" stroke-width="0.5"/>
<path d="M119.456 320.06C119.456 320.06 124.97 323.501 129.317 325.036C133.664 326.57 136.42 325.933 136.42 325.933" stroke="black" stroke-width="0.5"/>
<path d="M141.121 297.628L132.117 307.332" stroke="black" stroke-width="0.5"/>
<path d="M103.595 295.424L101.314 293.412" stroke="black" stroke-width="0.5"/>
<path d="M102.957 292.669L101.525 291.186" stroke="black" stroke-width="0.5"/>
<path d="M117.254 269.764L116.352 267.433" stroke="#FFF8EF" stroke-width="0.5"/>
<path d="M119.693 272.466L119.215 270.399" stroke="#FFF8EF" stroke-width="0.5"/>
<path d="M122.238 274.054L121.76 271.988" stroke="#FFF8EF" stroke-width="0.5"/>
<path d="M154.312 288.769C160.027 289.193 170.568 292.903 167.008 304.355C163.448 315.807 150.018 312.415 143.748 309.287" stroke="black"/>
<path d="M150.606 294.707C153.892 294.793 160.071 296.061 159.937 300.531C159.73 307.474 152.096 304.281 148.385 303.93" stroke="black"/>
<path d="M97.2176 295.254C88.3311 291.288 81.7131 289.876 80.3256 292.1C78.1324 295.613 89.8376 306.878 106.47 317.259C123.102 327.64 138.363 333.207 140.556 329.693C141.768 327.752 138.737 323.445 132.977 318.228" stroke="black"/>
<path d="M78.4127 219.789C83.1778 222.616 97.2458 227.812 115.397 225.987C138.086 223.705 157.118 232.616 158.536 243.862C159.842 254.221 149.725 261.144 142.324 264.973" stroke="black"/>
<path d="M101.34 321.984C98.268 325.187 93.191 334.307 97.4558 345.161" stroke="black"/>
</svg>
