<svg width="251" height="54" viewBox="0 0 251 54" fill="none" xmlns="http://www.w3.org/2000/svg">
<path d="M21.4 53.72C31.84 53.72 40.84 48.392 40.84 39.032C40.84 18.296 11.752 28.232 11.752 12.752C11.752 8.648 14.416 5.336 19.888 5.336C30.4 5.336 27.736 18.152 35.512 18.152C38.608 18.152 40.12 16.424 40.12 13.688C40.192 7.712 32.2 1.232 20.104 1.232C8.224 1.232 1.024 7.568 1.024 16.208C1.096 37.52 30.184 27.008 30.184 42.344C30.184 46.736 26.872 49.616 21.832 49.616C9.664 49.616 11.608 36.512 4.408 36.368C1.456 36.368 0.0880001 38.24 0.0880001 40.76C0.0880001 46.52 7.72 53.72 21.4 53.72ZM80.0164 45.656V19.304C80.0164 18.08 79.1524 17.792 77.2804 18.008L68.0644 19.376C67.2004 19.52 66.6244 20.168 66.6244 20.888V21.104C66.6244 22.688 69.5044 23.408 69.5044 26.576V41.192C69.5044 46.304 66.7684 49.616 63.3124 49.616C59.3524 49.616 57.3364 46.52 57.3364 39.824L57.5524 19.304C57.5524 18.08 56.4724 17.792 54.6004 18.008L45.5284 19.376C44.5924 19.52 44.0164 20.168 44.0164 20.888V21.104C44.0164 22.688 46.8244 23.408 46.8244 26.576V38.744C46.8244 48.608 52.8004 53.72 60.2164 53.72C65.1844 53.72 68.7124 51.92 70.6564 48.752C70.8724 52.28 72.9604 53.432 77.0644 53.432C81.0964 53.432 83.4724 53 83.4724 51.344C83.4724 48.68 80.0164 51.344 80.0164 45.656ZM108.958 17.72C104.134 17.72 100.75 20.24 99.1656 24.848V19.448C99.1656 18.08 98.5176 17.216 96.8616 18.008L88.2216 22.04C87.2856 22.472 86.7096 23.048 86.7096 23.768V24.056C86.7096 25.856 90.0216 26.072 90.0216 29.24V46.088C90.0216 49.112 87.2136 49.688 87.2136 51.488V51.776C87.2136 52.568 87.8616 53 88.8696 53H102.19C103.126 53 103.774 52.568 103.774 51.776V51.488C103.774 49.688 100.174 49.112 100.174 46.088V31.688C100.174 27.728 101.182 23.768 103.99 23.768C107.878 23.768 105.358 29.96 110.974 29.96C114.43 29.96 115.582 27.296 115.582 24.272C115.582 20.6 113.206 17.72 108.958 17.72ZM136.648 0.223997C127.216 0.223997 122.824 6.272 122.824 13.904V18.44H117.712C116.848 18.44 116.2 19.088 116.2 19.88V21.248C116.2 22.04 116.848 22.616 117.712 22.616H122.824V46.016C122.824 49.112 119.944 49.688 119.944 51.488V51.776C119.944 52.496 120.52 53 121.456 53H135.496C136.288 53 136.864 52.496 136.864 51.776V51.488C136.864 49.688 133.264 49.112 133.264 46.016V22.616H141.76C142.552 22.616 143.2 22.04 143.2 21.248V19.88C143.2 19.088 142.552 18.44 141.76 18.44H132.976C131.104 12.896 129.376 3.248 134.56 3.248C140.176 3.32 135.64 12.392 143.488 12.392C146.224 12.392 147.52 10.376 147.52 8.648C147.52 4.112 142.624 0.223997 136.648 0.223997ZM177.057 45.8L175.473 32.48C174.465 23.408 168.129 17.72 158.769 17.72C151.281 17.72 144.945 20.744 144.945 25.928C144.945 28.376 146.673 29.96 149.265 29.96C154.665 29.96 153.009 20.744 158.769 20.744C163.161 20.744 164.313 24.776 165.177 33.2L165.249 34.064C163.377 32.768 160.713 31.904 157.401 31.904C150.345 31.904 144.297 35.648 144.369 42.848C144.369 50.048 150.129 53.72 157.905 53.72C162.873 53.72 165.897 51.92 167.481 49.544C167.913 52.64 169.785 53.432 173.889 53.432C177.345 53.432 180.801 53 180.801 51.344C180.801 49.4 177.633 50.768 177.057 45.8ZM161.073 50.552C157.401 50.552 155.025 46.16 155.025 41.192C155.025 37.52 157.257 35.144 160.281 35.144C163.233 35.144 165.537 37.304 165.969 41.552L166.185 44.072C166.401 47.312 164.385 50.552 161.073 50.552ZM200.408 53.72C209.768 53.72 214.664 47.888 215.096 41.984C215.24 40.4 213.44 40.112 212.576 41.264C211.064 43.856 208.328 46.304 203.936 46.304C196.592 46.304 191.696 40.04 191.696 30.464C191.696 25.136 194.288 20.888 198.392 20.888C204.656 20.816 204.224 31.04 210.416 31.4C213.728 31.544 214.88 29.672 214.88 27.8C214.88 22.184 208.256 17.648 199.976 17.72C190.256 17.792 181.832 24.56 181.832 35.648C181.832 45.368 189.536 53.72 200.408 53.72ZM248.206 42.056C246.838 44.288 243.814 46.232 239.998 46.232C235.678 46.232 232.366 43.928 230.494 39.968L246.478 32.696C248.422 31.832 249.646 30.392 249.646 27.944C249.646 23.192 245.47 17.72 236.038 17.72C226.606 17.72 218.614 24.992 218.614 35.432C218.614 46.52 226.03 53.72 236.038 53.72C245.326 53.72 250.222 47.024 250.654 42.848C250.726 41.336 249.07 40.976 248.206 42.056ZM234.742 20.888C238.63 20.888 240.502 26 240.502 28.592C240.502 30.104 239.926 31.328 238.63 31.976L229.342 36.656C228.838 34.784 228.622 32.696 228.622 30.464C228.622 24.992 230.926 20.888 234.742 20.888Z" fill="white"/>
</svg>
