<svg width="234" height="105" viewBox="0 0 234 105" fill="none" xmlns="http://www.w3.org/2000/svg">
<path d="M1 97.0422C20.5 104.376 69 111.742 107 82.5422" stroke="black"/>
<circle cx="139" cy="53.5422" r="27" fill="#111111"/>
<path d="M183.5 19.5421C190 10.8755 209.1 -4.55786 233.5 3.04214" stroke="black"/>
<path d="M163.378 45.078C162.899 43.8839 162.595 41.2083 165.211 40.0583C167.827 38.9083 169.84 41.0369 170.52 42.245C170.483 41.2332 170.884 38.9094 172.776 37.709C174.669 36.5086 176.501 38.6246 177.181 39.8327C177.459 38.6409 178.577 36.4479 180.829 37.2104C183.081 37.9729 184.223 39.3795 184.179 40.0829" stroke="black"/>
<rect x="158.848" y="16.6272" width="6" height="6" rx="1" transform="rotate(-26.2494 158.848 16.6272)" stroke="black"/>
<path d="M105.298 72.4801C103.089 71.3575 98.3109 69.57 96.8668 71.4015C95.4228 73.233 101.886 72.8837 105.298 72.4801Z" fill="#111111"/>
<path d="M139.999 65.5416C133.833 63.0416 122.269 55.7697 128.499 49.5416C132.5 45.542 137.5 48.7083 138.5 52.5416C138.667 49.5417 140.648 41.8949 146 43.542C152.5 45.5422 146.667 55.8756 144 62.0422" stroke="#FFF8EF"/>
</svg>
